HIERARCHY
ROOT Hips
{
	OFFSET 0.00000 0.00000 0.00000
	CHANNELS 6 Xposition Yposition Zposition Zrotation Yrotation Xrotation 
	JOINT RightUpLegDummy
	{
		OFFSET 0 0 0
		CHANNELS 3 Zrotation Yrotation Xrotation
		JOINT RightUpLeg
		{
			OFFSET -3.52197 -3.41223 0.04002
			CHANNELS 3 Zrotation Yrotation Xrotation
			JOINT RightLeg
			{
				OFFSET -1.06336 -17.58347 1.60435
				CHANNELS 3 Zrotation Yrotation Xrotation
				JOINT RightFoot
				{
					OFFSET -0.27018 -17.05419 -1.63900
					CHANNELS 3 Zrotation Yrotation Xrotation
					JOINT RightToes
					{
						OFFSET 0.00298 -1.73825 3.34613
						CHANNELS 3 Zrotation Yrotation Xrotation
						End Site
						{
							OFFSET 0.00480 -0.05416 3.85043
						}
					}
				}
			}
		}
	}
	JOINT SpineDummy
	{
		OFFSET 0 0 0
		CHANNELS 3 Zrotation Yrotation Xrotation
		JOINT Spine
		{
			OFFSET 0.00000 4.14613 0.00000
			CHANNELS 3 Zrotation Yrotation Xrotation
			JOINT Spine1
			{
				OFFSET 0.00000 10.93369 0.05002
				CHANNELS 3 Zrotation Yrotation Xrotation
				JOINT HEadDummy
				{
					OFFSET 0 0 0
					CHANNELS 3 Zrotation Yrotation Xrotation
					JOINT Head
					{
						OFFSET 0.00000 5.52901 0.00438
						CHANNELS 3 Zrotation Yrotation Xrotation
						End Site
						{
							OFFSET -0.11417 7.29012 0.98962
						}
					}
				}
				JOINT LeftShoulder1Dummy
				{
					OFFSET 0 0 0
					CHANNELS 3 Zrotation Yrotation Xrotation
					JOINT LeftShoulder1
					{
						OFFSET 3.53937 -0.14262 -0.08662
						CHANNELS 3 Zrotation Yrotation Xrotation
						JOINT LeftArm
						{
							OFFSET 4.04833 -0.00133 0.12681
							CHANNELS 3 Zrotation Yrotation Xrotation
							JOINT LeftForeArm
							{
								OFFSET 9.67557 0.03289 -0.56117
								CHANNELS 3 Zrotation Yrotation Xrotation
								JOINT LeftHand
								{
									OFFSET 10.17679 0.06873 0.40307
									CHANNELS 3 Zrotation Yrotation Xrotation
									End Site
									{
										OFFSET 6.59293 -0.21483 0.59213
									}
								}
							}
						}
					}
				}
				JOINT RightShoulderDummy
				{
					OFFSET 0 0 0
					CHANNELS 3 Zrotation Yrotation Xrotation
					JOINT RightShoulder
					{
						OFFSET -3.53937 -0.14262 -0.08660
						CHANNELS 3 Zrotation Yrotation Xrotation
						JOINT RightArm
						{
							OFFSET -4.04833 -0.00132 0.12683
							CHANNELS 3 Zrotation Yrotation Xrotation
							JOINT RightForeArm
							{
								OFFSET -9.67570 0.03289 -0.56114
								CHANNELS 3 Zrotation Yrotation Xrotation
								JOINT RightHand
								{
									OFFSET -10.17679 0.06867 0.40304
									CHANNELS 3 Zrotation Yrotation Xrotation
									End Site
									{
										OFFSET -6.54841 -0.21495 0.59212
									}
								}
							}
						}
					}
				}
			}
		}
	}
	JOINT LeftUpLegDummy
	{
		OFFSET 0 0 0
		CHANNELS 3 Zrotation Yrotation Xrotation
		JOINT LeftUpLeg
		{
			OFFSET 3.52197 -3.41223 0.04002
			CHANNELS 3 Zrotation Yrotation Xrotation
			JOINT LeftLeg
			{
				OFFSET 1.08359 -17.35354 1.60336
				CHANNELS 3 Zrotation Yrotation Xrotation
				JOINT LeftFoot
				{
					OFFSET 0.24986 -17.28405 -1.63802
					CHANNELS 3 Zrotation Yrotation Xrotation
					JOINT LeftToes
					{
						OFFSET -0.01575 -1.73822 3.34610
						CHANNELS 3 Zrotation Yrotation Xrotation
						End Site
						{
							OFFSET 0.03150 -0.01868 3.85031
						}
					}
				}
			}
		}
	}
}
MOTION
Frames: 14
Frame Time: 0.033333
21.3467 40.6424 5.3869 177.2900 -42.9137 -178.3570 0.0000 0.0000 0.0000 -11.5334 1.3421 -6.4661 -1.9625 -0.1715 15.6778 3.9427 -0.2695 -2.1704 0.0000 -0.0000 0.0000 0.0000 0.0000 0.0000 -0.9381 4.2039 -5.4186 -8.5705 6.8590 14.8420 0.0000 0.0000 0.0000 3.1426 19.6108 -9.4285 0.0000 0.0000 0.0000 -13.3966 -3.0725 1.6236 12.7214 -32.3139 -46.2500 2.3375 -66.5392 28.7856 9.3134 -4.9937 -0.7412 0.0000 0.0000 0.0000 3.3161 0.3642 0.5250 2.6099 79.9067 -36.4936 -79.2208 89.2315 -50.9095 -2.9466 9.9151 -0.3043 0.0000 0.0000 0.0000 2.2134 13.1981 -3.7971 6.7814 34.0758 10.2279 2.6228 -0.2587 -0.4421 0.0000 0.0000 -0.0000
21.4541 40.6820 5.2653 177.2950 -42.3207 -178.4350 0.0000 0.0000 0.0000 -11.3556 0.9988 -5.5389 -1.6059 0.6397 13.7074 3.3369 -0.2250 -2.1232 0.0000 -0.0000 0.0000 0.0000 0.0000 0.0000 -0.1491 4.2889 -5.5883 -8.9407 7.0811 14.8371 0.0000 0.0000 0.0000 3.2628 19.9258 -9.4830 0.0000 0.0000 0.0000 -13.8674 -3.1207 1.6666 12.6895 -32.5956 -46.7625 2.4057 -67.9553 28.2395 9.2164 -4.8847 -0.7252 0.0000 0.0000 0.0000 3.3019 0.4312 0.5327 4.1083 81.0501 -35.7876 -109.5767 89.2113 -81.5252 -3.8909 9.8389 -0.4212 0.0000 0.0000 0.0000 2.6493 12.8736 -3.1850 6.2606 35.0570 9.4676 2.7273 -0.2654 0.0494 0.0000 0.0000 -0.0000
21.6858 40.7243 5.0000 177.4720 -41.4177 -178.5780 0.0000 0.0000 0.0000 -10.3770 -1.1176 -4.3182 -1.5193 2.9817 10.8685 2.1706 -0.1296 -2.2730 0.0000 -0.0000 0.0000 0.0000 0.0000 0.0000 1.2012 4.4111 -6.0195 -9.5586 7.4068 14.9289 0.0000 0.0000 0.0000 3.2824 20.4383 -9.6565 0.0000 0.0000 0.0000 -14.5528 -3.2717 1.7482 12.1982 -33.0033 -47.5737 2.6082 -70.6680 27.1798 8.8514 -4.6293 -0.6771 0.0000 0.0000 0.0000 3.3497 0.5465 0.5492 7.4096 82.6904 -33.6402 -142.9695 88.8136 -115.6275 -5.3104 9.6331 -0.5908 0.0000 0.0000 0.0000 3.5806 13.0177 -2.5168 5.5283 35.8354 8.6072 2.7230 -0.2648 0.8037 0.0000 0.0000 -0.0000
21.9657 40.7371 4.6836 177.8750 -40.7931 -178.7710 0.0000 0.0000 0.0000 -9.0008 -3.3138 -3.6011 -1.7382 4.6849 9.0174 1.0260 -0.0325 -2.6654 0.0000 -0.0000 0.0000 0.0000 0.0000 0.0000 2.3213 4.4250 -6.5030 -9.8364 7.4819 15.0575 0.0000 0.0000 0.0000 3.0049 21.0611 -9.8089 0.0000 0.0000 0.0000 -15.2351 -3.4563 1.8394 11.2553 -33.0672 -48.0974 2.9197 -73.4742 26.0063 8.3868 -4.2919 -0.6174 0.0000 0.0000 0.0000 3.3175 0.6570 0.5616 11.2071 83.7195 -30.5916 -154.8133 88.3932 -128.2390 -6.3447 9.4201 -0.7085 0.0000 0.0000 0.0000 4.7332 13.6151 -2.2132 5.0139 35.7910 8.1591 2.4807 -0.2458 1.4628 0.0000 0.0000 -0.0000
22.2465 40.7395 4.3832 178.3880 -40.6923 -178.9750 0.0000 0.0000 0.0000 -7.7896 -3.9543 -3.2759 -1.9209 4.5377 8.2066 0.4380 0.0188 -3.0891 0.0000 -0.0000 0.0000 0.0000 0.0000 0.0000 2.9022 4.2622 -6.8452 -9.5220 7.1829 15.0389 0.0000 0.0000 0.0000 2.7047 21.6931 -9.7122 0.0000 0.0000 0.0000 -15.7265 -3.5741 1.9030 10.1594 -32.8336 -48.2448 3.2291 -75.5593 25.1468 7.9566 -4.0240 -0.5673 0.0000 0.0000 0.0000 3.2901 0.7228 0.5685 13.0284 83.8486 -28.8855 -158.3789 88.1966 -132.2829 -6.9577 9.3539 -0.7797 0.0000 0.0000 0.0000 5.8615 13.9479 -2.0794 4.5641 35.4988 7.6365 2.2003 -0.2188 2.1004 0.0000 0.0000 -0.0000
22.5322 40.7475 4.1011 178.8300 -41.1393 -179.0860 0.0000 0.0000 0.0000 -6.8527 -4.4230 -3.0119 -1.9204 4.3178 7.6783 0.4812 0.0231 -3.4585 0.0000 -0.0000 0.0000 0.0000 0.0000 0.0000 2.9385 3.9208 -7.0686 -8.7042 6.5725 14.8499 0.0000 0.0000 0.0000 2.6536 22.1443 -9.3562 0.0000 0.0000 0.0000 -15.9882 -3.6055 1.9299 9.2775 -32.5827 -48.2060 3.4804 -76.8598 24.6712 7.5045 -3.9006 -0.5263 0.0000 0.0000 0.0000 3.3550 0.7638 0.5766 12.4446 83.3368 -29.2236 -159.9241 88.1047 -134.1774 -7.4811 9.4288 -0.8477 0.0000 0.0000 0.0000 6.8226 13.8170 -1.9865 3.9673 35.2105 6.6936 2.1041 -0.2113 2.8907 0.0000 0.0000 -0.0000
22.8235 40.7597 3.8273 179.1090 -42.0661 -179.0590 0.0000 0.0000 0.0000 -6.1689 -5.0521 -2.6793 -1.7807 4.1703 7.1335 0.7326 0.0155 -3.8658 0.0000 -0.0000 0.0000 0.0000 0.0000 0.0000 2.6147 3.4635 -7.2722 -7.6970 5.8223 14.6327 0.0000 0.0000 0.0000 2.7634 22.2729 -9.0251 0.0000 0.0000 0.0000 -16.0562 -3.6078 1.9355 8.7644 -32.4399 -48.0393 3.6330 -77.5711 24.3494 7.0622 -3.8578 -0.4913 0.0000 0.0000 0.0000 3.4957 0.7993 0.5876 11.1369 82.3853 -30.2006 -160.8872 88.0776 -135.6853 -7.9694 9.4611 -0.9092 0.0000 0.0000 0.0000 7.5577 13.5606 -2.0043 3.2696 34.6248 5.5071 2.1997 -0.2274 3.8237 0.0000 0.0000 -0.0000
23.0827 40.7741 3.5828 179.2400 -43.3020 -178.9770 0.0000 0.0000 0.0000 -5.6435 -5.4098 -2.3481 -1.7111 3.4050 6.7972 0.7390 0.0241 -4.2724 0.0000 -0.0000 0.0000 0.0000 0.0000 0.0000 2.2140 3.0024 -7.4503 -6.7983 5.1237 14.5427 0.0000 0.0000 0.0000 2.7281 22.1527 -9.0182 0.0000 0.0000 0.0000 -15.9956 -3.5951 1.9279 8.5291 -32.3705 -47.6648 3.6111 -77.7093 24.0568 6.7754 -3.8349 -0.4690 0.0000 0.0000 0.0000 3.6346 0.7899 0.5929 10.2231 81.1373 -30.6658 -159.2653 88.2919 -134.7090 -8.2910 9.3329 -0.9402 0.0000 0.0000 0.0000 8.0423 13.3738 -2.0776 2.5906 33.6516 4.2840 2.3487 -0.2522 4.7338 0.0000 0.0000 -0.0000
23.2783 40.7926 3.3928 179.3220 -44.6224 -178.9910 0.0000 0.0000 0.0000 -5.1993 -5.5210 -1.9699 -1.7901 2.1944 6.6306 0.4392 0.0467 -4.5110 0.0000 -0.0000 0.0000 0.0000 0.0000 0.0000 2.0332 2.6422 -7.5138 -6.1197 4.5984 14.6087 0.0000 0.0000 0.0000 2.4148 21.9361 -9.3360 0.0000 0.0000 0.0000 -15.9190 -3.5379 1.9086 8.3980 -32.3958 -47.0814 3.4443 -77.3425 23.8437 6.6824 -3.8472 -0.4629 0.0000 0.0000 0.0000 3.7420 0.7156 0.5884 9.7124 79.8899 -30.5169 -149.4749 88.8351 -125.2887 -8.5165 9.1918 -0.9581 0.0000 0.0000 0.0000 8.3518 13.2517 -2.0201 1.9388 32.5112 3.0252 2.4663 -0.2739 5.5065 0.0000 0.0000 -0.0000
23.4193 40.8089 3.2581 179.4650 -45.9296 -179.1800 0.0000 0.0000 0.0000 -4.8262 -5.6365 -1.4380 -1.8807 1.0271 6.3797 0.0952 0.0688 -4.5911 0.0000 -0.0000 0.0000 0.0000 0.0000 0.0000 2.1959 2.4068 -7.3759 -5.6621 4.2517 14.6809 0.0000 0.0000 0.0000 1.9995 21.6022 -9.6939 0.0000 0.0000 0.0000 -15.8931 -3.4690 1.8904 8.2490 -32.5422 -46.3560 3.2602 -76.8021 23.7023 6.6766 -3.8847 -0.4644 0.0000 0.0000 0.0000 3.8696 0.6638 0.5875 9.3946 78.8483 -30.1043 -108.5611 89.3713 -84.3457 -8.7104 9.2696 -0.9868 0.0000 0.0000 0.0000 8.6375 13.1582 -1.8543 1.3399 31.3654 1.8831 2.5432 -0.2898 6.1124 0.0000 0.0000 -0.0000
23.5254 40.8163 3.1651 179.5900 -47.2365 -179.4080 0.0000 0.0000 0.0000 -4.6042 -5.8167 -0.8743 -1.8794 -0.0353 6.1341 -0.1255 0.0818 -4.6805 0.0000 -0.0000 0.0000 0.0000 0.0000 0.0000 2.5141 2.2653 -7.0463 -5.5441 4.0737 14.5824 0.0000 0.0000 0.0000 1.8078 21.0017 -9.8209 0.0000 0.0000 0.0000 -15.7711 -3.4689 1.8814 7.9995 -32.7557 -45.4912 3.1280 -76.4482 23.5031 6.5635 -3.8855 -0.4561 0.0000 0.0000 0.0000 4.1506 0.7373 0.6101 9.3390 77.8841 -29.5554 -50.3777 89.2122 -25.9562 -8.6655 9.5165 -0.9983 0.0000 0.0000 0.0000 8.8673 13.1254 -1.7462 0.8413 30.1750 1.0222 2.5911 -0.3008 6.5723 0.0000 0.0000 -0.0000
23.5877 40.8134 3.1099 179.5760 -48.4704 -179.4990 0.0000 0.0000 0.0000 -4.5624 -6.0106 -0.5310 -1.8796 -1.0330 6.2020 -0.2861 0.0917 -4.8425 0.0000 -0.0000 0.0000 0.0000 0.0000 0.0000 2.7535 2.1853 -6.7698 -5.6532 4.0221 14.4875 0.0000 0.0000 0.0000 1.8888 20.2250 -9.7779 0.0000 0.0000 0.0000 -15.5504 -3.5021 1.8731 7.8151 -32.9038 -44.6479 3.0630 -76.4551 23.1744 6.1266 -3.8635 -0.4230 0.0000 0.0000 0.0000 4.4574 0.8977 0.6457 9.6434 77.0684 -28.8806 -31.8490 88.8354 -7.2616 -8.3159 9.6280 -0.9628 0.0000 0.0000 0.0000 8.9253 13.0734 -1.8013 0.5161 29.0639 0.5564 2.5934 -0.3034 6.8311 0.0000 0.0000 -0.0000
23.5967 40.8023 3.0906 179.3670 -49.5014 -179.3830 0.0000 0.0000 0.0000 -4.6852 -6.1746 -0.4476 -2.0042 -1.8433 6.5928 -0.3660 0.0988 -5.0674 0.0000 -0.0000 0.0000 0.0000 0.0000 0.0000 2.6733 2.1281 -6.7740 -5.5741 3.9684 14.7155 0.0000 0.0000 0.0000 1.9326 19.5928 -9.8506 0.0000 0.0000 0.0000 -15.5427 -3.4512 1.8606 8.0577 -32.9322 -44.2048 3.0873 -76.7720 22.8880 5.4623 -3.9195 -0.3764 0.0000 0.0000 0.0000 4.4160 1.0107 0.6590 10.1737 76.8610 -28.2553 -24.5706 88.5070 0.1441 -8.0469 9.5000 -0.9212 0.0000 0.0000 0.0000 8.7747 12.9696 -1.9958 0.3533 28.1838 0.4754 2.6019 -0.3049 6.8497 0.0000 0.0000 -0.0000
23.5631 40.7852 3.1055 179.0530 -50.3648 -179.1630 0.0000 0.0000 0.0000 -4.9382 -6.3196 -0.3920 -2.1914 -2.4345 6.9669 -0.1511 0.0919 -5.3480 0.0000 -0.0000 0.0000 0.0000 0.0000 0.0000 2.4213 2.1402 -6.8800 -5.4460 3.9874 15.0850 0.0000 0.0000 0.0000 1.9306 19.0368 -10.0942 0.0000 0.0000 0.0000 -15.4302 -3.3718 1.8339 8.4613 -33.2739 -44.1648 3.1642 -77.0306 22.9217 5.1675 -4.0495 -0.3597 0.0000 0.0000 0.0000 4.3226 1.0002 0.6531 10.4163 77.0960 -28.0127 -22.6085 88.3682 2.2589 -8.1352 9.3803 -0.9244 0.0000 0.0000 0.0000 8.5108 12.8926 -2.3217 0.3060 27.4360 0.7889 2.7163 -0.3208 6.6569 0.0000 0.0000 -0.0000
